<svg width="1920" height="142" fill="none" xmlns="http://www.w3.org/2000/svg"><path d="M587.5 27.308L431.518 7.403a150 150 0 00-37.961.586L215.103 33.564a149.99 149.99 0 01-29.334 1.3L0 23.962V141h1920V23.962l-217.85 16.39c-13.7 1.068-27.48.25-40.96-2.434L1492.37 4.305a149.993 149.993 0 00-72.85 3.576l-54.11 16.423a150.016 150.016 0 01-75.6 3.004L1185.3 4.46a150.017 150.017 0 00-68.37 1.005l-89.49 22.34a149.975 149.975 0 01-63.321 2.018L826.01 4.556a150 150 0 00-66.326 2.8c-9.838 2.673-19.633 5.606-29.691 7.269l-41.366 6.837c-10.059 1.663-19.884 4.66-29.938 6.349-22.467 3.774-51.926 1.652-71.189-.503z" fill="url(#paint0_linear_124_439)" fill-opacity=".78" stroke="url(#paint1_linear_124_439)"/><defs><linearGradient id="paint0_linear_124_439" x1="960" y1="1" x2="960" y2="922.462" gradientUnits="userSpaceOnUse"><stop stop-color="#449CCD" stop-opacity="0"/><stop offset="0" stop-color="#12AAFF"/></linearGradient><linearGradient id="paint1_linear_124_439" x1="960" y1="1" x2="960" y2="922.462" gradientUnits="userSpaceOnUse"><stop stop-color="#4A2828"/><stop offset=".105" stop-color="#fff" stop-opacity="0"/></linearGradient></defs></svg>