<svg width="1920" height="142" viewBox="0 0 1920 142" fill="none" xmlns="http://www.w3.org/2000/svg">
<path d="M587.5 27.3078L431.518 7.40251C418.89 5.98943 406.135 6.18654 393.557 7.98908L215.103 33.5636C205.391 34.9555 195.566 35.3911 185.769 34.8642L0 23.9622V141H1920V23.9622L1702.15 40.3516C1688.45 41.4203 1674.67 40.6014 1661.19 37.918L1492.37 4.30453C1468.17 -0.515793 1443.14 0.712707 1419.52 7.88106L1365.41 24.3041C1340.88 31.748 1314.85 32.7822 1289.81 27.3078L1185.3 4.46077C1162.74 -0.471613 1139.34 -0.127488 1116.93 5.46632L1027.44 27.8065C1006.72 32.9801 985.131 33.6679 964.119 29.8238L826.01 4.5565C803.906 0.512643 781.244 1.49757 759.684 7.35571C749.846 10.0289 740.051 12.9622 729.993 14.6247L688.627 21.462C678.568 23.1245 668.743 26.1216 658.689 27.8108C636.222 31.5854 606.763 29.4634 587.5 27.3078Z" fill="url(#paint0_linear_124_439)" fill-opacity="0.78" stroke="url(#paint1_linear_124_439)"/>
<defs>
<linearGradient id="paint0_linear_124_439" x1="960" y1="1" x2="960" y2="922.462" gradientUnits="userSpaceOnUse">
<stop stop-color="#449CCD" stop-opacity="0"/>
<stop offset="0.0001" stop-color="#12AAFF"/>
</linearGradient>
<linearGradient id="paint1_linear_124_439" x1="960" y1="1" x2="960" y2="922.462" gradientUnits="userSpaceOnUse">
<stop stop-color="#4A2828"/>
<stop offset="0.104644" stop-color="white" stop-opacity="0"/>
</linearGradient>
</defs>
</svg>
