<svg width="4147" height="142" viewBox="0 0 4147 142" fill="none" xmlns="http://www.w3.org/2000/svg">
<path fill-rule="evenodd" clip-rule="evenodd" d="M2538.87 7.40251L2707.29 27.3078C2728.7 29.5265 2761.77 31.7096 2786.26 27.4641C2790.55 26.7205 2794.81 25.7746 2799.06 24.8288C2804.13 23.7027 2809.19 22.5766 2814.32 21.7921L2863.3 14.2946C2872.03 12.9571 2880.59 10.6862 2889.14 8.41853L2891.17 7.88012C2915.05 1.55923 2940.25 0.394832 2964.81 4.5565L3113.93 29.8238C3136.61 33.6679 3159.92 32.9801 3182.3 27.8065L3278.92 5.46632C3303.12 -0.127488 3328.38 -0.471613 3352.74 4.46077L3465.58 27.3078C3492.62 32.7822 3520.72 31.748 3547.2 24.3041L3605.63 7.88106C3631.13 0.712707 3658.15 -0.515793 3684.29 4.30453L3866.56 37.918C3881.11 40.6014 3895.99 41.4203 3910.78 40.3516L4146 23.9622V141H2074.04H2072.96H1V23.9622L201.576 34.8642C212.154 35.3911 222.763 34.9555 233.249 33.5636L425.927 7.98908C439.507 6.18654 453.279 5.98944 466.913 7.40251L635.329 27.3078C656.735 29.5265 689.805 31.7096 714.302 27.4641C718.592 26.7205 722.848 25.7746 727.103 24.8288C732.169 23.7027 737.235 22.5766 742.359 21.7921L791.336 14.2946C800.072 12.9571 808.629 10.6864 817.174 8.41871C817.851 8.23901 818.528 8.05932 819.205 7.88012C843.089 1.55923 868.289 0.394833 892.85 4.5565L1041.97 29.8238C1064.65 33.6679 1087.96 32.9801 1110.34 27.8065L1206.96 5.46632C1231.16 -0.127486 1256.42 -0.471612 1280.78 4.46077L1393.62 27.3078C1420.66 32.7822 1448.76 31.7481 1475.24 24.3042L1533.67 7.88106C1559.17 0.712708 1586.19 -0.515791 1612.33 4.30453L1794.6 37.918C1809.15 40.6014 1824.03 41.4203 1838.82 40.3516L2072.96 24.0374V23.9622L2073.57 23.9952L2074.04 23.9622V24.0209L2273.54 34.8642C2284.11 35.3911 2294.72 34.9555 2305.21 33.5636L2497.89 7.98908C2511.47 6.18654 2525.24 5.98943 2538.87 7.40251Z" fill="url(#paint0_linear_205_6)" fill-opacity="0.78"/>
<path d="M2707.29 27.3078L2707.23 27.8044L2707.24 27.8052L2707.29 27.3078ZM2538.87 7.40251L2538.93 6.90591L2538.93 6.90517L2538.87 7.40251ZM2786.26 27.4641L2786.35 27.9567L2786.35 27.9567L2786.26 27.4641ZM2799.06 24.8288L2799.17 25.3169L2799.17 25.3169L2799.06 24.8288ZM2814.32 21.7921L2814.24 21.2979L2814.24 21.2979L2814.32 21.7921ZM2863.3 14.2946L2863.22 13.8003L2863.22 13.8003L2863.3 14.2946ZM2889.14 8.41853L2889.01 7.93523L2889.01 7.93526L2889.14 8.41853ZM2891.17 7.88012L2891.04 7.39676L2891.04 7.39682L2891.17 7.88012ZM2964.81 4.5565L2964.89 4.06352L2964.89 4.06352L2964.81 4.5565ZM3113.93 29.8238L3114.01 29.3308L3114.01 29.3308L3113.93 29.8238ZM3182.3 27.8065L3182.19 27.3194L3182.19 27.3194L3182.3 27.8065ZM3278.92 5.46632L3278.81 4.97917L3278.81 4.97917L3278.92 5.46632ZM3352.74 4.46077L3352.84 3.97071L3352.84 3.97071L3352.74 4.46077ZM3465.58 27.3078L3465.68 26.8178L3465.68 26.8178L3465.58 27.3078ZM3547.2 24.3041L3547.07 23.8228L3547.07 23.8228L3547.2 24.3041ZM3605.63 7.88106L3605.49 7.39971L3605.49 7.39971L3605.63 7.88106ZM3684.29 4.30453L3684.38 3.81282L3684.38 3.81282L3684.29 4.30453ZM3866.56 37.918L3866.47 38.4097L3866.47 38.4097L3866.56 37.918ZM3910.78 40.3516L3910.75 39.8528L3910.75 39.8529L3910.78 40.3516ZM4146 23.9622H4146.5V23.4262L4145.97 23.4634L4146 23.9622ZM4146 141V141.5H4146.5V141H4146ZM1 141H0.5V141.5H1V141ZM1 23.9622L1.02714 23.4629L0.5 23.4343V23.9622H1ZM201.576 34.8642L201.549 35.3635L201.551 35.3636L201.576 34.8642ZM233.249 33.5636L233.315 34.0593L233.315 34.0593L233.249 33.5636ZM425.927 7.98908L425.861 7.49343L425.861 7.49343L425.927 7.98908ZM466.913 7.40251L466.972 6.90591L466.965 6.90517L466.913 7.40251ZM635.329 27.3078L635.27 27.8044L635.277 27.8052L635.329 27.3078ZM714.302 27.4641L714.387 27.9567L714.387 27.9567L714.302 27.4641ZM727.103 24.8288L727.211 25.3168L727.211 25.3168L727.103 24.8288ZM742.359 21.7921L742.435 22.2864L742.435 22.2864L742.359 21.7921ZM791.336 14.2946L791.411 14.7888L791.336 14.2946ZM817.174 8.41871L817.046 7.93544L817.046 7.93544L817.174 8.41871ZM819.205 7.88012L819.333 8.36348L819.333 8.36348L819.205 7.88012ZM892.85 4.5565L892.933 4.06352L892.933 4.06352L892.85 4.5565ZM1041.97 29.8238L1042.05 29.3308L1042.05 29.3308L1041.97 29.8238ZM1110.34 27.8065L1110.23 27.3194L1110.23 27.3194L1110.34 27.8065ZM1206.96 5.46632L1206.85 4.97918L1206.85 4.97918L1206.96 5.46632ZM1280.78 4.46077L1280.88 3.97071L1280.88 3.97071L1280.78 4.46077ZM1393.62 27.3078L1393.52 27.7979L1393.52 27.7979L1393.62 27.3078ZM1475.24 24.3042L1475.11 23.8228L1475.11 23.8228L1475.24 24.3042ZM1533.67 7.88106L1533.8 8.3624L1533.8 8.3624L1533.67 7.88106ZM1612.33 4.30453L1612.42 3.81282L1612.42 3.81282L1612.33 4.30453ZM1794.6 37.918L1794.51 38.4097L1794.51 38.4097L1794.6 37.918ZM1838.82 40.3516L1838.79 39.8528L1838.79 39.8529L1838.82 40.3516ZM2072.96 24.0374L2072.99 24.5362L2073.46 24.5038V24.0374H2072.96ZM2072.96 23.9622L2072.99 23.4629L2072.46 23.4343V23.9622H2072.96ZM2073.57 23.9952L2073.54 24.4944L2073.57 24.4961L2073.6 24.494L2073.57 23.9952ZM2074.04 23.9622H2074.54V23.4262L2074.01 23.4634L2074.04 23.9622ZM2074.04 24.0209H2073.54V24.4944L2074.01 24.5201L2074.04 24.0209ZM2273.54 34.8642L2273.51 35.3635L2273.51 35.3636L2273.54 34.8642ZM2305.21 33.5636L2305.28 34.0593L2305.28 34.0593L2305.21 33.5636ZM2497.89 7.98908L2497.82 7.49343L2497.82 7.49343L2497.89 7.98908ZM2707.35 26.8113L2538.93 6.90596L2538.81 7.89905L2707.23 27.8044L2707.35 26.8113ZM2786.18 26.9714C2761.75 31.2041 2728.75 29.029 2707.34 26.8105L2707.24 27.8052C2728.65 30.024 2761.78 32.2152 2786.35 27.9567L2786.18 26.9714ZM2798.95 24.3407C2794.7 25.2869 2790.45 26.2302 2786.18 26.9714L2786.35 27.9567C2790.65 27.2108 2794.92 26.2623 2799.17 25.3169L2798.95 24.3407ZM2814.24 21.2979C2809.1 22.0853 2804.02 23.2152 2798.95 24.3407L2799.17 25.3169C2804.24 24.1901 2809.29 23.0679 2814.39 22.2864L2814.24 21.2979ZM2863.22 13.8003L2814.24 21.2979L2814.39 22.2864L2863.37 14.7888L2863.22 13.8003ZM2889.01 7.93526C2880.46 10.2041 2871.93 12.4676 2863.22 13.8003L2863.37 14.7888C2872.14 13.4466 2880.72 11.1683 2889.26 8.9018L2889.01 7.93526ZM2891.04 7.39682L2889.01 7.93523L2889.26 8.90183L2891.29 8.36341L2891.04 7.39682ZM2964.89 4.06352C2940.26 -0.110057 2914.99 1.0576 2891.04 7.39676L2891.29 8.36347C2915.11 2.06086 2940.24 0.899721 2964.73 5.04947L2964.89 4.06352ZM3114.01 29.3308L2964.89 4.06352L2964.73 5.04947L3113.84 30.3168L3114.01 29.3308ZM3182.19 27.3194C3159.88 32.4781 3136.63 33.1639 3114.01 29.3308L3113.84 30.3168C3136.6 34.1719 3159.97 33.4822 3182.41 28.2937L3182.19 27.3194ZM3278.81 4.97917L3182.19 27.3194L3182.41 28.2937L3279.04 5.95347L3278.81 4.97917ZM3352.84 3.97071C3328.41 -0.975832 3303.07 -0.630744 3278.81 4.97917L3279.04 5.95347C3303.16 0.375769 3328.35 0.032605 3352.64 4.95082L3352.84 3.97071ZM3465.68 26.8178L3352.84 3.97071L3352.64 4.95082L3465.48 27.7979L3465.68 26.8178ZM3547.07 23.8228C3520.66 31.2452 3492.64 32.2764 3465.68 26.8178L3465.48 27.7979C3492.6 33.2879 3520.78 32.2509 3547.34 24.7855L3547.07 23.8228ZM3605.49 7.39971L3547.07 23.8228L3547.34 24.7855L3605.76 8.3624L3605.49 7.39971ZM3684.38 3.81282C3658.17 -1.02131 3631.07 0.210617 3605.49 7.39971L3605.76 8.3624C3631.19 1.2148 3658.14 -0.0102774 3684.2 4.79623L3684.38 3.81282ZM3866.65 37.4263L3684.38 3.81282L3684.2 4.79623L3866.47 38.4097L3866.65 37.4263ZM3910.75 39.8529C3896 40.9185 3881.16 40.102 3866.65 37.4263L3866.47 38.4097C3881.06 41.1008 3895.98 41.922 3910.82 40.8503L3910.75 39.8529ZM4145.97 23.4634L3910.75 39.8528L3910.82 40.8503L4146.03 24.461L4145.97 23.4634ZM4146.5 141V23.9622H4145.5V141H4146.5ZM2074.04 141.5H4146V140.5H2074.04V141.5ZM2072.96 141.5H2074.04V140.5H2072.96V141.5ZM1 141.5H2072.96V140.5H1V141.5ZM0.5 23.9622V141H1.5V23.9622H0.5ZM201.603 34.365L1.02714 23.4629L0.972863 24.4615L201.549 35.3635L201.603 34.365ZM233.183 33.068C222.727 34.4559 212.149 34.8902 201.601 34.3648L201.551 35.3636C212.159 35.892 222.798 35.4551 233.315 34.0593L233.183 33.068ZM425.861 7.49343L233.183 33.068L233.315 34.0593L425.992 8.48474L425.861 7.49343ZM466.965 6.90517C453.292 5.48806 439.48 5.68572 425.861 7.49343L425.992 8.48474C439.534 6.68736 453.267 6.49082 466.862 7.89984L466.965 6.90517ZM635.387 26.8113L466.972 6.90596L466.855 7.89905L635.27 27.8044L635.387 26.8113ZM714.216 26.9714C689.794 31.2041 656.785 29.029 635.38 26.8105L635.277 27.8052C656.685 30.024 689.816 32.2152 714.387 27.9567L714.216 26.9714ZM726.994 24.3407C722.737 25.2869 718.493 26.2302 714.216 26.9714L714.387 27.9567C718.691 27.2108 722.958 26.2623 727.211 25.3168L726.994 24.3407ZM742.284 21.2979C737.14 22.0853 732.058 23.2152 726.994 24.3407L727.211 25.3168C732.28 24.1901 737.329 23.0679 742.435 22.2864L742.284 21.2979ZM791.26 13.8003L742.284 21.2979L742.435 22.2864L791.411 14.7888L791.26 13.8003ZM817.046 7.93544C808.496 10.2043 799.966 12.4676 791.26 13.8003L791.411 14.7888C800.179 13.4466 808.762 11.1685 817.302 8.90199L817.046 7.93544ZM819.078 7.39676C818.4 7.57601 817.723 7.75574 817.046 7.93544L817.302 8.90199C817.979 8.72227 818.656 8.54263 819.333 8.36348L819.078 7.39676ZM892.933 4.06352C868.302 -0.110055 843.03 1.0576 819.078 7.39676L819.333 8.36348C843.148 2.06086 868.276 0.899722 892.766 5.04947L892.933 4.06352ZM1042.05 29.3308L892.933 4.06352L892.766 5.04947L1041.88 30.3168L1042.05 29.3308ZM1110.23 27.3194C1087.92 32.4781 1064.67 33.1639 1042.05 29.3308L1041.88 30.3168C1064.64 34.1719 1088.01 33.4822 1110.45 28.2937L1110.23 27.3194ZM1206.85 4.97918L1110.23 27.3194L1110.45 28.2937L1207.08 5.95347L1206.85 4.97918ZM1280.88 3.97071C1256.45 -0.975831 1231.11 -0.630743 1206.85 4.97918L1207.08 5.95347C1231.2 0.37577 1256.39 0.0326065 1280.68 4.95082L1280.88 3.97071ZM1393.72 26.8178L1280.88 3.97071L1280.68 4.95082L1393.52 27.7979L1393.72 26.8178ZM1475.11 23.8228C1448.7 31.2452 1420.68 32.2764 1393.72 26.8178L1393.52 27.7979C1420.63 33.2879 1448.82 32.2509 1475.38 24.7855L1475.11 23.8228ZM1533.53 7.39971L1475.11 23.8228L1475.38 24.7855L1533.8 8.3624L1533.53 7.39971ZM1612.42 3.81282C1586.21 -1.02131 1559.11 0.210618 1533.53 7.39971L1533.8 8.3624C1559.23 1.2148 1586.18 -0.010276 1612.24 4.79624L1612.42 3.81282ZM1794.69 37.4263L1612.42 3.81282L1612.24 4.79624L1794.51 38.4097L1794.69 37.4263ZM1838.79 39.8529C1824.04 40.9185 1809.2 40.102 1794.69 37.4263L1794.51 38.4097C1809.1 41.1008 1824.02 41.922 1838.86 40.8503L1838.79 39.8529ZM2072.93 23.5386L1838.79 39.8528L1838.86 40.8503L2072.99 24.5362L2072.93 23.5386ZM2072.46 23.9622V24.0374H2073.46V23.9622H2072.46ZM2073.59 23.4959L2072.99 23.4629L2072.93 24.4615L2073.54 24.4944L2073.59 23.4959ZM2074.01 23.4634L2073.53 23.4964L2073.6 24.494L2074.07 24.461L2074.01 23.4634ZM2074.54 24.0209V23.9622H2073.54V24.0209H2074.54ZM2273.56 34.365L2074.07 23.5216L2074.01 24.5201L2273.51 35.3635L2273.56 34.365ZM2305.14 33.068C2294.69 34.4559 2284.11 34.8902 2273.56 34.3648L2273.51 35.3636C2284.12 35.892 2294.76 35.4551 2305.28 34.0593L2305.14 33.068ZM2497.82 7.49343L2305.14 33.068L2305.28 34.0593L2497.95 8.48473L2497.82 7.49343ZM2538.93 6.90517C2525.25 5.48805 2511.44 5.68572 2497.82 7.49343L2497.95 8.48473C2511.49 6.68736 2525.23 6.49081 2538.82 7.89984L2538.93 6.90517Z" fill="url(#paint1_linear_205_6)"/>
<defs>
<linearGradient id="paint0_linear_205_6" x1="3109.48" y1="1" x2="3109.48" y2="922.462" gradientUnits="userSpaceOnUse">
<stop stop-color="#449CCD"/>
<stop offset="0.078125" stop-color="#12AAFF"/>
<stop offset="0.244792" stop-color="#188FE2"/>
</linearGradient>
<linearGradient id="paint1_linear_205_6" x1="3109.48" y1="1" x2="3109.48" y2="922.462" gradientUnits="userSpaceOnUse">
<stop stop-color="#4A2828"/>
<stop offset="0.104644" stop-color="white" stop-opacity="0"/>
</linearGradient>
</defs>
</svg>
