<svg width="4147" height="142" fill="none" xmlns="http://www.w3.org/2000/svg"><path fill-rule="evenodd" clip-rule="evenodd" d="M2538.87 7.403l168.42 19.905c21.41 2.218 54.48 4.402 78.97.156 4.29-.743 8.55-1.69 12.8-2.635 5.07-1.126 10.13-2.252 15.26-3.037l48.98-7.497c8.73-1.338 17.29-3.609 25.84-5.876l2.03-.539c23.88-6.32 49.08-7.485 73.64-3.324l149.12 25.268a174.536 174.536 0 0068.37-2.018l96.62-22.34a174.552 174.552 0 0173.82-1.005l112.84 22.847c27.04 5.474 55.14 4.44 81.62-3.004l58.43-16.423c25.5-7.168 52.52-8.397 78.66-3.576l182.27 33.613a174.6 174.6 0 0044.22 2.434L4146 23.962V141H1V23.962l200.576 10.902a174.73 174.73 0 0031.673-1.3L425.927 7.989a174.75 174.75 0 0140.986-.586l168.416 19.905c21.406 2.218 54.476 4.402 78.973.156 4.29-.743 8.546-1.69 12.801-2.635 5.066-1.126 10.132-2.252 15.256-3.037l48.977-7.497c8.736-1.338 17.293-3.609 25.838-5.876l2.031-.539c23.884-6.32 49.084-7.485 73.645-3.324l149.12 25.268a174.536 174.536 0 0068.37-2.018l96.62-22.34a174.552 174.552 0 0173.82-1.005l112.84 22.847c27.04 5.474 55.14 4.44 81.62-3.004l58.43-16.423c25.5-7.168 52.52-8.397 78.66-3.576l182.27 33.613a174.6 174.6 0 0044.22 2.434l234.14-16.315v-.075l.61.033.47-.033v.059l199.5 10.843c10.57.527 21.18.092 31.67-1.3l192.68-25.575c13.58-1.802 27.35-2 40.98-.586z" fill="url(#paint0_linear_205_6)" fill-opacity=".78"/><path d="M2707.29 27.308l-.06.496.01.001.05-.497zM2538.87 7.403l.06-.497-.06.497zm247.39 20.061l.09.493-.09-.493zm12.8-2.635l.11.488-.11-.488zm15.26-3.037l-.08-.494.08.494zm48.98-7.497l-.08-.495.08.495zm25.84-5.876l-.13-.484.13.484zm2.03-.539l-.13-.483.13.483zm73.64-3.324l.08-.492-.08.492zm149.12 25.268l.08-.493-.08.493zm68.37-2.018l-.11-.487.11.488zm96.62-22.34l-.11-.487.11.487zm73.82-1.005l.1-.49-.1.49zm112.84 22.847l.1-.49-.1.49zm81.62-3.004l-.13-.481.13.481zm58.43-16.423l-.14-.481.14.481zm78.66-3.576l.09-.492-.09.492zm182.27 33.613l-.09.492.09-.492zm44.22 2.434l-.03-.5.03.5zM4146 23.962h.5v-.536l-.53.037.03.5zM4146 141v.5h.5v-.5h-.5zM1 141H.5v.5H1v-.5zM1 23.962l.027-.5-.527-.028v.528H1zm200.576 10.902l-.027.5h.002l.025-.5zm31.673-1.3l.066.495-.066-.495zM425.927 7.989l-.066-.496.066.496zm40.986-.586l.059-.497h-.007l-.052.497zm168.416 19.905l-.059.496.007.001.052-.497zm78.973.156l.085.493-.085-.493zm12.801-2.635l.108.488-.108-.488zm15.256-3.037l.076.494-.076-.494zm48.977-7.497l.075.494-.075-.494zm25.838-5.876l-.128-.484.128.484zm2.031-.539l.128.483-.128-.483zm73.645-3.324l.083-.492-.083.492zm149.12 25.268l.08-.493-.08.493zm68.37-2.018l-.11-.487.11.488zm96.62-22.34l-.11-.487.11.487zm73.82-1.005l.1-.49-.1.49zm112.84 22.847l-.1.49.1-.49zm81.62-3.004l-.13-.481.13.481zm58.43-16.423l.13.481-.13-.48zm78.66-3.576l.09-.492-.09.492zm182.27 33.613l-.09.492.09-.492zm44.22 2.434l-.03-.5.03.5zm234.14-16.315l.03.5.47-.033v-.467h-.5zm0-.075l.03-.5-.53-.028v.528h.5zm.61.033l-.03.5.03.001.03-.002-.03-.499zm.47-.033h.5v-.536l-.53.037.03.5zm0 .059h-.5v.473l.47.026.03-.5zm199.5 10.843l-.03.5.03-.5zm31.67-1.3l.07.495-.07-.495zm192.68-25.575l-.07-.496.07.496zm209.46 18.822L2538.93 6.906l-.12.993 168.42 19.905.12-.993zm78.83.16c-24.43 4.233-57.43 2.058-78.84-.16l-.1.994c21.41 2.219 54.54 4.41 79.11.152l-.17-.986zm12.77-2.63c-4.25.946-8.5 1.89-12.77 2.63l.17.986c4.3-.746 8.57-1.695 12.82-2.64l-.22-.976zm15.29-3.043c-5.14.787-10.22 1.917-15.29 3.043l.22.976c5.07-1.127 10.12-2.25 15.22-3.03l-.15-.99zm48.98-7.498l-48.98 7.498.15.988 48.98-7.497-.15-.989zm25.79-5.865c-8.55 2.27-17.08 4.533-25.79 5.865l.15.989c8.77-1.342 17.35-3.62 25.89-5.887l-.25-.967zm2.03-.538l-2.03.538.25.967 2.03-.539-.25-.966zm73.85-3.333c-24.63-4.174-49.9-3.006-73.85 3.333l.25.966c23.82-6.302 48.95-7.463 73.44-3.314l.16-.985zm149.12 25.267L2964.89 4.064l-.16.985 149.11 25.268.17-.986zm68.18-2.012a174.06 174.06 0 01-68.18 2.012l-.17.986a175.045 175.045 0 0068.57-2.023l-.22-.975zm96.62-22.34l-96.62 22.34.22.975 96.63-22.34-.23-.975zm74.03-1.008a175.042 175.042 0 00-74.03 1.008l.23.974a174.012 174.012 0 0173.6-1.002l.2-.98zm112.84 22.847L3352.84 3.97l-.2.98 112.84 22.847.2-.98zm81.39-2.995c-26.41 7.422-54.43 8.453-81.39 2.995l-.2.98c27.12 5.49 55.3 4.453 81.86-3.012l-.27-.963zM3605.49 7.4l-58.42 16.423.27.962 58.42-16.423-.27-.962zm78.89-3.587c-26.21-4.834-53.31-3.602-78.89 3.587l.27.962c25.43-7.147 52.38-8.372 78.44-3.566l.18-.983zm182.27 33.613L3684.38 3.813l-.18.983 182.27 33.614.18-.984zm44.1 2.427a174.12 174.12 0 01-44.1-2.427l-.18.984a175.104 175.104 0 0044.35 2.44l-.07-.997zm235.22-16.39l-235.22 16.39.07.997 235.21-16.389-.06-.998zM4146.5 141V23.962h-1V141h1zm-2072.46.5H4146v-1H2074.04v1zm-1.08 0h1.08v-1h-1.08v1zM1 141.5h2071.96v-1H1v1zM.5 23.962V141h1V23.962h-1zm201.103 10.403L1.027 23.463l-.054.998 200.576 10.903.054-.999zm31.58-1.297a174.226 174.226 0 01-31.582 1.297l-.05.999c10.608.528 21.247.091 31.764-1.305l-.132-.991zM425.861 7.493L233.183 33.068l.132.991L425.992 8.485l-.131-.992zm41.104-.588a175.256 175.256 0 00-41.104.588l.131.992a174.262 174.262 0 0140.87-.585l.103-.995zm168.422 19.906L466.972 6.906l-.117.993L635.27 27.804l.117-.993zm78.829.16c-24.422 4.233-57.431 2.058-78.836-.16l-.103.994c21.408 2.219 54.539 4.41 79.11.152l-.171-.986zm12.778-2.63c-4.257.946-8.501 1.89-12.778 2.63l.171.986c4.304-.746 8.571-1.695 12.824-2.64l-.217-.976zm15.29-3.043c-5.144.787-10.226 1.917-15.29 3.043l.217.976c5.069-1.127 10.118-2.25 15.224-3.03l-.151-.99zM791.26 13.8l-48.976 7.498.151.988 48.976-7.497-.151-.989zm25.786-5.865c-8.55 2.27-17.08 4.533-25.786 5.865l.151.989c8.768-1.342 17.351-3.62 25.891-5.887l-.256-.967zm2.032-.538l-2.032.538.256.967 2.031-.539-.255-.966zm73.855-3.333C868.302-.11 843.03 1.058 819.078 7.397l.255.966C843.148 2.061 868.276.9 892.766 5.05l.167-.985zM1042.05 29.33L892.933 4.064l-.167.985 149.114 25.268.17-.986zm68.18-2.012a174.06 174.06 0 01-68.18 2.012l-.17.986a175.045 175.045 0 0068.57-2.023l-.22-.975zm96.62-22.34l-96.62 22.34.22.975 96.63-22.34-.23-.975zm74.03-1.008a175.041 175.041 0 00-74.03 1.008l.23.974a174.012 174.012 0 0173.6-1.002l.2-.98zm112.84 22.847L1280.88 3.97l-.2.98 112.84 22.847.2-.98zm81.39-2.995c-26.41 7.422-54.43 8.453-81.39 2.995l-.2.98c27.11 5.49 55.3 4.453 81.86-3.012l-.27-.963zM1533.53 7.4l-58.42 16.423.27.962 58.42-16.423-.27-.962zm78.89-3.587c-26.21-4.834-53.31-3.602-78.89 3.587l.27.962c25.43-7.147 52.38-8.372 78.44-3.566l.18-.983zm182.27 33.613L1612.42 3.813l-.18.983 182.27 33.614.18-.984zm44.1 2.427a174.12 174.12 0 01-44.1-2.427l-.18.984a175.104 175.104 0 0044.35 2.44l-.07-.997zm234.14-16.314l-234.14 16.314.07.997 234.13-16.314-.06-.997zm-.47.423v.075h1v-.075h-1zm1.13-.466l-.6-.033-.06.998.61.033.05-.998zm.42-.033l-.48.033.07.998.47-.033-.06-.998zm.53.558v-.059h-1v.059h1zm199.02 10.344l-199.49-10.843-.06.998 199.5 10.844.05-.999zm31.58-1.297a174.174 174.174 0 01-31.58 1.297l-.05.999c10.61.528 21.25.091 31.77-1.305l-.14-.991zm192.68-25.575l-192.68 25.575.14.991 192.67-25.574-.13-.992zm41.11-.588a175.301 175.301 0 00-41.11.588l.13.992a174.264 174.264 0 0140.87-.585l.11-.995z" fill="url(#paint1_linear_205_6)"/><defs><linearGradient id="paint0_linear_205_6" x1="3109.48" y1="1" x2="3109.48" y2="922.462" gradientUnits="userSpaceOnUse"><stop stop-color="#449CCD"/><stop offset=".078" stop-color="#12AAFF"/><stop offset=".245" stop-color="#188FE2"/></linearGradient><linearGradient id="paint1_linear_205_6" x1="3109.48" y1="1" x2="3109.48" y2="922.462" gradientUnits="userSpaceOnUse"><stop stop-color="#4A2828"/><stop offset=".105" stop-color="#fff" stop-opacity="0"/></linearGradient></defs></svg>